bicep_curl
version=1
nRows=101
nColumns=3
inDegrees=yes

# SIMM Motion File Header:
name bicep_curl
datacolumns 3
datarows 101
otherdata 1
range 0.0000 1.0000
endheader
time	/jointset/r_shoulder/r_shoulder_elev/value	/jointset/r_elbow/r_elbow_flex/value
0.0000	0.0000	10.0000
0.0100	0.0000	10.0000
0.0200	0.0000	10.0000
0.0300	0.0000	10.0000
0.0400	0.0000	10.0000
0.0500	0.0000	10.0000
0.0600	0.0000	10.0000
0.0700	0.0000	10.0000
0.0800	0.0000	10.0000
0.0900	0.0000	10.0000
0.1000	0.0000	10.0000
0.1100	0.0000	12.9996
0.1200	0.0000	15.9964
0.1300	0.0000	18.9879
0.1400	0.0000	21.9712
0.1500	0.0000	24.9438
0.1600	0.0000	27.9030
0.1700	0.0000	30.8460
0.1800	0.0000	33.7703
0.1900	0.0000	36.6731
0.2000	0.0000	39.5520
0.2100	0.0000	42.4043
0.2200	0.0000	45.2274
0.2300	0.0000	48.0188
0.2400	0.0000	50.7760
0.2500	0.0000	53.4966
0.2600	0.0000	56.1779
0.2700	0.0000	58.8177
0.2800	0.0000	61.4136
0.2900	0.0000	63.9632
0.3000	0.0000	66.4642
0.3100	0.0000	68.9145
0.3200	0.0000	71.3117
0.3300	0.0000	73.6537
0.3400	0.0000	75.9385
0.3500	0.0000	78.1639
0.3600	0.0000	80.3279
0.3700	0.0000	82.4287
0.3800	0.0000	84.4643
0.3900	0.0000	86.4329
0.4000	0.0000	88.3327
0.4100	0.0000	90.1620
0.4200	0.0000	91.9192
0.4300	0.0000	93.6026
0.4400	0.0000	95.2108
0.4500	0.0000	96.7423
0.4600	0.0000	98.1958
0.4700	0.0000	99.5699
0.4800	0.0000	100.8633
0.4900	0.0000	102.0751
0.5000	0.0000	103.2039
0.5100	0.0000	104.2489
0.5200	0.0000	105.2090
0.5300	0.0000	106.0835
0.5400	0.0000	106.8715
0.5500	0.0000	107.5723
0.5600	0.0000	108.1854
0.5700	0.0000	108.7100
0.5800	0.0000	109.1458
0.5900	0.0000	109.4924
0.6000	0.0000	109.7495
0.6100	0.0000	109.9168
0.6200	0.0000	109.9942
0.6300	0.0000	109.9816
0.6400	0.0000	109.8790
0.6500	0.0000	109.6865
0.6600	0.0000	109.4043
0.6700	0.0000	109.0327
0.6800	0.0000	108.5719
0.6900	0.0000	108.0224
0.7000	0.0000	107.3848
0.7100	0.0000	106.6594
0.7200	0.0000	105.8471
0.7300	0.0000	104.9486
0.7400	0.0000	103.9645
0.7500	0.0000	102.8960
0.7600	0.0000	101.7438
0.7700	0.0000	100.5091
0.7800	0.0000	99.1929
0.7900	0.0000	97.7964
0.8000	0.0000	96.3209
0.8100	0.0000	94.7678
0.8200	0.0000	93.1383
0.8300	0.0000	91.4341
0.8400	0.0000	89.6565
0.8500	0.0000	87.8073
0.8600	0.0000	85.8881
0.8700	0.0000	83.9005
0.8800	0.0000	81.8465
0.8900	0.0000	79.7278
0.9000	0.0000	77.5463
0.9100	0.0000	75.3041
0.9200	0.0000	73.0031
0.9300	0.0000	70.6454
0.9400	0.0000	68.2331
0.9500	0.0000	65.7684
0.9600	0.0000	63.2535
0.9700	0.0000	60.6907
0.9800	0.0000	58.0823
0.9900	0.0000	55.4306
1.0000	0.0000	52.7380
